<svg id="visual" viewBox="0 0 900 600" width="900" height="600" xmlns="http://www.w3.org/2000/svg" xmlns:xlink="http://www.w3.org/1999/xlink" version="1.1"><g stroke-width="1" stroke-linejoin="bevel"><path d="M392 337L432 390L463 371Z" fill="#2e353f" stroke="#2e353f"></path><path d="M392 337L333 368L432 390Z" fill="#333944" stroke="#333944"></path><path d="M333 368L374 463L432 390Z" fill="#2e353f" stroke="#2e353f"></path><path d="M432 390L466 500L463 371Z" fill="#262c36" stroke="#262c36"></path><path d="M463 371L531 276L392 337Z" fill="#454c58" stroke="#454c58"></path><path d="M374 463L466 500L432 390Z" fill="#262c36" stroke="#262c36"></path><path d="M613 407L600 270L531 276Z" fill="#262c36" stroke="#262c36"></path><path d="M531 276L365 207L392 337Z" fill="#454c58" stroke="#454c58"></path><path d="M392 337L295 262L333 368Z" fill="#262c36" stroke="#262c36"></path><path d="M365 207L295 262L392 337Z" fill="#49505d" stroke="#49505d"></path><path d="M531 276L537 203L365 207Z" fill="#373e49" stroke="#373e49"></path><path d="M613 407L531 276L463 371Z" fill="#4e5562" stroke="#4e5562"></path><path d="M531 276L600 270L537 203Z" fill="#262c36" stroke="#262c36"></path><path d="M466 500L613 407L463 371Z" fill="#404753" stroke="#404753"></path><path d="M466 500L589 505L613 407Z" fill="#454c58" stroke="#454c58"></path><path d="M333 61L283 175L365 207Z" fill="#454c58" stroke="#454c58"></path><path d="M365 207L283 175L295 262Z" fill="#373e49" stroke="#373e49"></path><path d="M333 368L263 517L374 463Z" fill="#2a313a" stroke="#2a313a"></path><path d="M374 463L362 600L466 500Z" fill="#3b434e" stroke="#3b434e"></path><path d="M466 500L520 600L589 505Z" fill="#373e49" stroke="#373e49"></path><path d="M187 380L263 517L333 368Z" fill="#2e353f" stroke="#2e353f"></path><path d="M187 380L333 368L182 322Z" fill="#49505d" stroke="#49505d"></path><path d="M600 270L624 216L537 203Z" fill="#49505d" stroke="#49505d"></path><path d="M666 236L624 216L600 270Z" fill="#222831" stroke="#222831"></path><path d="M182 322L333 368L295 262Z" fill="#373e49" stroke="#373e49"></path><path d="M201 215L182 322L295 262Z" fill="#333944" stroke="#333944"></path><path d="M338 600L362 600L374 463Z" fill="#454c58" stroke="#454c58"></path><path d="M696 320L666 236L600 270Z" fill="#2a313a" stroke="#2a313a"></path><path d="M696 320L600 270L613 407Z" fill="#3b434e" stroke="#3b434e"></path><path d="M283 175L201 215L295 262Z" fill="#2e353f" stroke="#2e353f"></path><path d="M362 600L520 600L466 500Z" fill="#4e5562" stroke="#4e5562"></path><path d="M263 517L338 600L374 463Z" fill="#2a313a" stroke="#2a313a"></path><path d="M737 497L691 407L589 505Z" fill="#333944" stroke="#333944"></path><path d="M589 505L691 407L613 407Z" fill="#262c36" stroke="#262c36"></path><path d="M691 407L696 320L613 407Z" fill="#222831" stroke="#222831"></path><path d="M485 76L537 203L586 89Z" fill="#3b434e" stroke="#3b434e"></path><path d="M485 76L425 76L537 203Z" fill="#222831" stroke="#222831"></path><path d="M537 203L425 76L365 207Z" fill="#2a313a" stroke="#2a313a"></path><path d="M174 118L137 189L201 215Z" fill="#49505d" stroke="#49505d"></path><path d="M586 89L537 203L624 216Z" fill="#373e49" stroke="#373e49"></path><path d="M66 417L160 460L187 380Z" fill="#3b434e" stroke="#3b434e"></path><path d="M187 380L160 460L263 517Z" fill="#454c58" stroke="#454c58"></path><path d="M263 517L226 600L338 600Z" fill="#2e353f" stroke="#2e353f"></path><path d="M520 600L591 600L589 505Z" fill="#2e353f" stroke="#2e353f"></path><path d="M735 131L586 89L624 216Z" fill="#2a313a" stroke="#2a313a"></path><path d="M393 0L333 61L425 76Z" fill="#262c36" stroke="#262c36"></path><path d="M425 76L333 61L365 207Z" fill="#222831" stroke="#222831"></path><path d="M160 460L226 600L263 517Z" fill="#404753" stroke="#404753"></path><path d="M201 215L100 280L182 322Z" fill="#404753" stroke="#404753"></path><path d="M182 322L66 417L187 380Z" fill="#3b434e" stroke="#3b434e"></path><path d="M174 118L201 215L283 175Z" fill="#4e5562" stroke="#4e5562"></path><path d="M137 189L100 280L201 215Z" fill="#3b434e" stroke="#3b434e"></path><path d="M698 600L737 497L589 505Z" fill="#404753" stroke="#404753"></path><path d="M691 407L784 298L696 320Z" fill="#222831" stroke="#222831"></path><path d="M333 61L174 118L283 175Z" fill="#333944" stroke="#333944"></path><path d="M519 0L393 0L485 76Z" fill="#333944" stroke="#333944"></path><path d="M485 76L393 0L425 76Z" fill="#2e353f" stroke="#2e353f"></path><path d="M333 61L290 0L174 118Z" fill="#373e49" stroke="#373e49"></path><path d="M820 434L784 298L691 407Z" fill="#222831" stroke="#222831"></path><path d="M696 320L784 298L666 236Z" fill="#262c36" stroke="#262c36"></path><path d="M666 236L735 131L624 216Z" fill="#333944" stroke="#333944"></path><path d="M586 89L519 0L485 76Z" fill="#3b434e" stroke="#3b434e"></path><path d="M571 0L519 0L586 89Z" fill="#373e49" stroke="#373e49"></path><path d="M591 600L698 600L589 505Z" fill="#3b434e" stroke="#3b434e"></path><path d="M100 280L66 417L182 322Z" fill="#373e49" stroke="#373e49"></path><path d="M160 460L118 600L226 600Z" fill="#333944" stroke="#333944"></path><path d="M66 417L79 488L160 460Z" fill="#262c36" stroke="#262c36"></path><path d="M793 184L735 131L666 236Z" fill="#262c36" stroke="#262c36"></path><path d="M393 0L290 0L333 61Z" fill="#222831" stroke="#222831"></path><path d="M662 0L571 0L586 89Z" fill="#2a313a" stroke="#2a313a"></path><path d="M79 488L118 600L160 460Z" fill="#2e353f" stroke="#2e353f"></path><path d="M737 497L820 434L691 407Z" fill="#2e353f" stroke="#2e353f"></path><path d="M811 513L820 434L737 497Z" fill="#2e353f" stroke="#2e353f"></path><path d="M784 298L793 184L666 236Z" fill="#2e353f" stroke="#2e353f"></path><path d="M900 226L793 184L784 298Z" fill="#333944" stroke="#333944"></path><path d="M206 0L130 78L174 118Z" fill="#262c36" stroke="#262c36"></path><path d="M174 118L130 78L137 189Z" fill="#333944" stroke="#333944"></path><path d="M0 170L0 289L100 280Z" fill="#404753" stroke="#404753"></path><path d="M0 289L0 401L66 417Z" fill="#2a313a" stroke="#2a313a"></path><path d="M698 600L811 513L737 497Z" fill="#333944" stroke="#333944"></path><path d="M290 0L206 0L174 118Z" fill="#373e49" stroke="#373e49"></path><path d="M778 74L662 0L735 131Z" fill="#2a313a" stroke="#2a313a"></path><path d="M735 131L662 0L586 89Z" fill="#222831" stroke="#222831"></path><path d="M66 417L0 479L79 488Z" fill="#454c58" stroke="#454c58"></path><path d="M79 488L0 600L118 600Z" fill="#2a313a" stroke="#2a313a"></path><path d="M0 289L66 417L100 280Z" fill="#2a313a" stroke="#2a313a"></path><path d="M0 170L100 280L137 189Z" fill="#4e5562" stroke="#4e5562"></path><path d="M793 184L778 74L735 131Z" fill="#2e353f" stroke="#2e353f"></path><path d="M0 401L0 479L66 417Z" fill="#2e353f" stroke="#2e353f"></path><path d="M130 78L0 170L137 189Z" fill="#333944" stroke="#333944"></path><path d="M0 73L0 170L130 78Z" fill="#49505d" stroke="#49505d"></path><path d="M206 0L118 0L130 78Z" fill="#2a313a" stroke="#2a313a"></path><path d="M698 600L827 600L811 513Z" fill="#262c36" stroke="#262c36"></path><path d="M900 465L900 416L820 434Z" fill="#373e49" stroke="#373e49"></path><path d="M900 465L820 434L811 513Z" fill="#222831" stroke="#222831"></path><path d="M820 434L900 416L784 298Z" fill="#404753" stroke="#404753"></path><path d="M793 184L900 78L778 74Z" fill="#373e49" stroke="#373e49"></path><path d="M900 416L900 281L784 298Z" fill="#49505d" stroke="#49505d"></path><path d="M900 600L900 465L811 513Z" fill="#2a313a" stroke="#2a313a"></path><path d="M900 0L764 0L778 74Z" fill="#4e5562" stroke="#4e5562"></path><path d="M778 74L764 0L662 0Z" fill="#404753" stroke="#404753"></path><path d="M900 281L900 226L784 298Z" fill="#373e49" stroke="#373e49"></path><path d="M0 479L0 600L79 488Z" fill="#222831" stroke="#222831"></path><path d="M118 0L0 73L130 78Z" fill="#404753" stroke="#404753"></path><path d="M827 600L900 600L811 513Z" fill="#454c58" stroke="#454c58"></path><path d="M900 226L900 78L793 184Z" fill="#373e49" stroke="#373e49"></path><path d="M118 0L0 0L0 73Z" fill="#4e5562" stroke="#4e5562"></path><path d="M900 78L900 0L778 74Z" fill="#4e5562" stroke="#4e5562"></path></g></svg>