<svg id="visual" viewBox="0 0 900 600" width="900" height="600" xmlns="http://www.w3.org/2000/svg" xmlns:xlink="http://www.w3.org/1999/xlink" version="1.1"><rect x="0" y="0" width="900" height="600" fill="#222831"></rect><path d="M0 434L21.5 443.7C43 453.3 86 472.7 128.8 480.3C171.7 488 214.3 484 257.2 467.7C300 451.3 343 422.7 385.8 411.7C428.7 400.7 471.3 407.3 514.2 406.3C557 405.3 600 396.7 642.8 403.7C685.7 410.7 728.3 433.3 771.2 437.3C814 441.3 857 426.7 878.5 419.3L900 412L900 601L878.5 601C857 601 814 601 771.2 601C728.3 601 685.7 601 642.8 601C600 601 557 601 514.2 601C471.3 601 428.7 601 385.8 601C343 601 300 601 257.2 601C214.3 601 171.7 601 128.8 601C86 601 43 601 21.5 601L0 601Z" fill="#76ABAE" stroke-linecap="round" stroke-linejoin="miter"></path></svg>